<svg aria-hidden="true" style="width:0;height:0;position:absolute;overflow:hidden" xmlns="http://www.w3.org/2000/svg"><defs><symbol id="icon-client" viewBox="0 0 32 32"><path d="M16 16a5.333 5.333 0 1 0 0-10.666A5.333 5.333 0 1 0 16 16zm0 2.667c-3.561 0-10.667 1.787-10.667 5.333v1.333c0 .732.599 1.333 1.333 1.333h18.667c.732 0 1.333-.601 1.333-1.333V24c0-3.547-7.108-5.333-10.667-5.333z"/></symbol><symbol id="icon-close-button" viewBox="0 0 32 32"><path d="m26.667 7.303-1.97-1.97-7.808 7.808-7.808-7.808-1.97 1.97 7.808 7.808-7.808 7.808 1.97 1.97 7.808-7.808 7.808 7.808 1.97-1.97-7.808-7.808 7.808-7.808z"/></symbol><symbol id="icon-e-mail" viewBox="0 0 32 32"><path d="M26.667 5.333H5.334A2.662 2.662 0 0 0 2.682 8l-.014 16c0 1.467 1.2 2.667 2.667 2.667h21.333c1.467 0 2.667-1.2 2.667-2.667V8c0-1.467-1.2-2.667-2.667-2.667zm-.534 5.668-9.426 5.892a1.343 1.343 0 0 1-1.421-.004l.006.003L5.866 11A1.133 1.133 0 1 1 7.07 9.083l-.004-.003 8.933 5.586 8.933-5.588a1.132 1.132 0 1 1 1.204 1.916l-.005.003z"/></symbol><symbol id="icon-phone" viewBox="0 0 32 32"><path d="m24.882 19.774-3.268-.373a2.552 2.552 0 0 0-2.11.732l-2.368 2.368c-3.669-1.894-6.585-4.81-8.427-8.372l-.051-.108 2.382-2.377a2.552 2.552 0 0 0 .731-2.122l.001.012-.373-3.243a2.578 2.578 0 0 0-2.557-2.276H6.613c-1.454 0-2.663 1.209-2.574 2.661.683 10.987 9.47 19.762 20.444 20.444 1.452.089 2.663-1.12 2.663-2.574v-2.238a2.549 2.549 0 0 0-2.253-2.532l-.012-.001z"/></symbol><symbol id="icon-send" viewBox="0 0 32 32"><path fill="#fff" style="fill:var(--color1,#fff)" d="M32 0 0 18l10.227 3.787L26 7 14.003 23.187l.009.003-.012-.003V32l5.735-6.691L27.002 28l4.999-28z"/></symbol><symbol id="icon-checked1" viewBox="0 0 32 32"><path d="M28.444 4.334v23.332H3.556V4.334h24.888zm0-3.334H3.556C1.6 1 0 2.5 0 4.334v23.332C0 29.5 1.6 31 3.556 31h24.888C30.4 31 32 29.5 32 27.666V4.334C32 2.5 30.4 1 28.444 1z"/></symbol><symbol id="icon-checked-done" viewBox="0 0 32 32"><path fill="#fff" style="fill:var(--color1,#fff);stroke:var(--color1,#fff)" stroke="#fff" stroke-width=".492" d="m4.817 15.39-.17-.162-.17.16-2.373 2.25.187.18 8.775 8.369.17-.162L29.894 8.226l-.187-.177-2.341-2.233-.17.162-16.13 15.375-6.25-5.962z"/></symbol><symbol id="icon-Facebook" viewBox="0 0 32 32"><path fill="#afb1b8" style="fill:var(--color2,#afb1b8)" d="M21.328 5.312h2.923V.224A36.478 36.478 0 0 0 20.144 0h-.157.008c-4.213 0-7.099 2.65-7.099 7.52V12H8.25v5.688h4.646V32h5.699V17.69h4.459l.709-5.688h-5.17V8.08c0-1.643.443-2.768 2.734-2.768z"/></symbol><symbol id="icon-Mail" viewBox="0 0 43 32"><path fill="#2196f3" style="fill:var(--color3,#2196f3)" d="M38.667 0H4C1.795 0 0 1.795 0 4v23.989c0 2.205 1.795 4 4 4h34.667c2.205 0 4-1.795 4-4V4c0-2.205-1.795-4-4-4zm0 2.667c.181 0 .355.037.512.101L21.334 18.229 3.489 2.768c.15-.064.325-.101.509-.101h34.669zm0 26.656H4a1.333 1.333 0 0 1-1.333-1.333V5.585l17.792 15.416c.233.203.539.327.875.327s.642-.124.876-.328l-.002.001L40 5.588v22.403c0 .736-.597 1.333-1.333 1.333z"/></symbol><symbol id="icon-smartphone" viewBox="0 0 20 32"><path fill="#757575" style="fill:var(--color4,#757575)" d="M17 0H3C1.346 0 0 1.346 0 3v26c0 1.654 1.346 3 3 3h14c1.654 0 3-1.346 3-3V3c0-1.654-1.346-3-3-3zM3 2h14a1 1 0 0 1 1 1v21H2V3a1 1 0 0 1 1-1zm14 28H3a1 1 0 0 1-1-1v-3h16v3a1 1 0 0 1-1 1z"/><path fill="#757575" style="fill:var(--color4,#757575)" d="M4.708 27.478a.889.889 0 0 1 .001 1.319l-.001.001a1.047 1.047 0 0 1-1.417-.001l.001.001a.889.889 0 0 1-.001-1.319l.001-.001a1.048 1.048 0 0 1 1.417 0l-.001-.001z"/></symbol><symbol id="icon-Vector-1" viewBox="0 0 26 32"><path fill="none" stroke="#fff" style="stroke:var(--color1,#fff)" stroke-linejoin="round" stroke-linecap="round" stroke-width="6.4" d="M5.171 3.2 19.341 16 5.171 28.8"/></symbol><symbol id="icon-telegram" viewBox="0 0 32 32"><path d="M16 0C7.162 0 0 7.162 0 16s7.162 16 16 16 16-7.163 16-16S24.837 0 16 0zm7.863 10.969-2.625 12.369c-.181.881-.712 1.087-1.45.681l-4-2.956-1.919 1.869c-.225.219-.4.4-.8.4-.519 0-.431-.194-.606-.688L11.1 18.169l-3.956-1.231c-.856-.262-.862-.85.194-1.269l15.412-5.95c.7-.319 1.381.169 1.113 1.25z"/></symbol><symbol id="icon-github" viewBox="0 0 32 32"><path d="M16 .395c-8.836 0-16 7.163-16 16 0 7.069 4.585 13.067 10.942 15.182.8.148 1.094-.347 1.094-.77 0-.381-.015-1.642-.022-2.979-4.452.968-5.391-1.888-5.391-1.888-.728-1.849-1.776-2.341-1.776-2.341-1.452-.993.11-.973.11-.973 1.606.113 2.452 1.649 2.452 1.649 1.427 2.446 3.743 1.739 4.656 1.33.143-1.034.558-1.74 1.016-2.14-3.554-.404-7.29-1.777-7.29-7.907 0-1.747.625-3.174 1.649-4.295-.166-.403-.714-2.03.155-4.234 0 0 1.344-.43 4.401 1.64a15.353 15.353 0 0 1 4.005-.539c1.359.006 2.729.184 4.008.539 3.054-2.07 4.395-1.64 4.395-1.64.871 2.204.323 3.831.157 4.234 1.026 1.12 1.647 2.548 1.647 4.295 0 6.145-3.743 7.498-7.306 7.895.574.497 1.085 1.47 1.085 2.963 0 2.141-.019 3.864-.019 4.391 0 .426.288.925 1.099.768C27.421 29.457 32 23.462 32 16.395c0-8.837-7.164-16-16-16z"/></symbol></defs></svg>